HIERARCHY
ROOT Hips
{
	OFFSET -14.64140 90.27770 -84.91600
	CHANNELS 6 Xposition Yposition Zposition Zrotation Xrotation Yrotation
	JOINT Spine
	{
		OFFSET 0.00000 13.20850 -1.60436
		CHANNELS 3 Zrotation Xrotation Yrotation
		JOINT Spine1
		{
			OFFSET 0.00000 8.61716 0.00000
			CHANNELS 3 Zrotation Xrotation Yrotation
			JOINT Spine2
			{
				OFFSET 0.00000 8.61717 0.00000
				CHANNELS 3 Zrotation Xrotation Yrotation
				JOINT Spine3
				{
					OFFSET 0.00000 8.61717 0.00000
					CHANNELS 3 Zrotation Xrotation Yrotation
					JOINT Neck
					{
						OFFSET 0.00000 11.07920 1.10792
						CHANNELS 3 Zrotation Xrotation Yrotation
						JOINT Neck1
						{
							OFFSET 0.00000 7.08032 0.00000
							CHANNELS 3 Zrotation Xrotation Yrotation
							JOINT Head
							{
								OFFSET 0.00000 7.08031 0.00000
								CHANNELS 3 Zrotation Xrotation Yrotation
								End site
								{
									OFFSET 0.00000 0.00000 0.00000
								}
							}
						}
					}
					JOINT RightShoulder
					{
						OFFSET -0.01000 7.91373 5.19711
						CHANNELS 3 Zrotation Xrotation Yrotation
						JOINT RightArm
						{
							OFFSET -18.41580 0.00000 0.00000
							CHANNELS 3 Zrotation Xrotation Yrotation
							JOINT RightForeArm
							{
								OFFSET -29.11090 0.00000 0.00000
								CHANNELS 3 Zrotation Xrotation Yrotation
								JOINT RightHand
								{
									OFFSET -24.65040 0.00000 0.00000
									CHANNELS 3 Zrotation Xrotation Yrotation
									JOINT RightHandThumb1
									{
										OFFSET -5.35114 -0.85590 3.97906
										CHANNELS 3 Zrotation Xrotation Yrotation
										JOINT RightHandThumb2
										{
											OFFSET -4.52789 0.00000 0.00000
											CHANNELS 3 Zrotation Xrotation Yrotation
											JOINT RightHandThumb3
											{
												OFFSET -2.46976 0.00000 0.00000
												CHANNELS 3 Zrotation Xrotation Yrotation
												End site
												{
													OFFSET 0.00000 0.00000 0.00000
												}
											}
										}
									}
									JOINT RightHandIndex1
									{
										OFFSET -14.26970 0.00000 2.88139
										CHANNELS 3 Zrotation Xrotation Yrotation
										JOINT RightHandIndex2
										{
											OFFSET -5.48836 0.00000 0.00000
											CHANNELS 3 Zrotation Xrotation Yrotation
											JOINT RightHandIndex3
											{
												OFFSET -3.01859 0.00000 0.00000
												CHANNELS 3 Zrotation Xrotation Yrotation
												End site
												{
													OFFSET 0.00000 0.00000 0.00000
												}
											}
										}
									}
									JOINT RightHandMiddle1
									{
										OFFSET -14.26970 0.00000 -0.09147
										CHANNELS 3 Zrotation Xrotation Yrotation
										JOINT RightHandMiddle2
										{
											OFFSET -6.17441 0.00000 0.00000
											CHANNELS 3 Zrotation Xrotation Yrotation
											JOINT RightHandMiddle3
											{
												OFFSET -3.56743 0.00000 0.00000
												CHANNELS 3 Zrotation Xrotation Yrotation
												End site
												{
													OFFSET 0.00000 0.00000 0.00000
												}
											}
										}
									}
									JOINT RightHandRing1
									{
										OFFSET -12.69180 0.00000 -3.06433
										CHANNELS 3 Zrotation Xrotation Yrotation
										JOINT RightHandRing2
										{
											OFFSET -5.62556 0.00000 0.00000
											CHANNELS 3 Zrotation Xrotation Yrotation
											JOINT RightHandRing3
											{
												OFFSET -3.56744 0.00000 0.00000
												CHANNELS 3 Zrotation Xrotation Yrotation
												End site
												{
													OFFSET 0.00000 0.00000 0.00000
												}
											}
										}
									}
									JOINT RightHandPinky1
									{
										OFFSET -11.11390 0.00000 -6.03719
										CHANNELS 3 Zrotation Xrotation Yrotation
										JOINT RightHandPinky2
										{
											OFFSET -4.52789 0.00000 0.00000
											CHANNELS 3 Zrotation Xrotation Yrotation
											JOINT RightHandPinky3
											{
												OFFSET -2.46976 0.00000 0.00000
												CHANNELS 3 Zrotation Xrotation Yrotation
												End site
												{
													OFFSET 0.00000 0.00000 0.00000
												}
											}
										}
									}
								}
							}
						}
					}
					JOINT LeftShoulder
					{
						OFFSET 0.01000 7.91373 5.19711
						CHANNELS 3 Zrotation Xrotation Yrotation
						JOINT LeftArm
						{
							OFFSET 18.41580 0.00000 0.00000
							CHANNELS 3 Zrotation Xrotation Yrotation
							JOINT LeftForeArm
							{
								OFFSET 29.11090 0.00000 0.00000
								CHANNELS 3 Zrotation Xrotation Yrotation
								JOINT LeftHand
								{
									OFFSET 24.65040 0.00000 0.00000
									CHANNELS 3 Zrotation Xrotation Yrotation
									JOINT LeftHandThumb1
									{
										OFFSET 5.35114 -0.85590 3.97906
										CHANNELS 3 Zrotation Xrotation Yrotation
										JOINT LeftHandThumb2
										{
											OFFSET 4.52789 0.00000 0.00000
											CHANNELS 3 Zrotation Xrotation Yrotation
											JOINT LeftHandThumb3
											{
												OFFSET 2.46977 0.00000 0.00000
												CHANNELS 3 Zrotation Xrotation Yrotation
												End site
												{
													OFFSET 0.00000 0.00000 0.00000
												}
											}
										}
									}
									JOINT LeftHandIndex1
									{
										OFFSET 14.26970 0.00000 2.88139
										CHANNELS 3 Zrotation Xrotation Yrotation
										JOINT LeftHandIndex2
										{
											OFFSET 5.48836 0.00000 0.00000
											CHANNELS 3 Zrotation Xrotation Yrotation
											JOINT LeftHandIndex3
											{
												OFFSET 3.01859 0.00000 0.00000
												CHANNELS 3 Zrotation Xrotation Yrotation
												End site
												{
													OFFSET 0.00000 0.00000 0.00000
												}
											}
										}
									}
									JOINT LeftHandMiddle1
									{
										OFFSET 14.26970 0.00000 -0.09147
										CHANNELS 3 Zrotation Xrotation Yrotation
										JOINT LeftHandMiddle2
										{
											OFFSET 6.17440 0.00000 0.00000
											CHANNELS 3 Zrotation Xrotation Yrotation
											JOINT LeftHandMiddle3
											{
												OFFSET 3.56744 0.00000 0.00000
												CHANNELS 3 Zrotation Xrotation Yrotation
												End site
												{
													OFFSET 0.00000 0.00000 0.00000
												}
											}
										}
									}
									JOINT LeftHandRing1
									{
										OFFSET 12.69180 0.00000 -3.06433
										CHANNELS 3 Zrotation Xrotation Yrotation
										JOINT LeftHandRing2
										{
											OFFSET 5.62556 0.00000 0.00000
											CHANNELS 3 Zrotation Xrotation Yrotation
											JOINT LeftHandRing3
											{
												OFFSET 3.56744 0.00000 0.00000
												CHANNELS 3 Zrotation Xrotation Yrotation
												End site
												{
													OFFSET 0.00000 0.00000 0.00000
												}
											}
										}
									}
									JOINT LeftHandPinky1
									{
										OFFSET 11.11390 0.00000 -6.03719
										CHANNELS 3 Zrotation Xrotation Yrotation
										JOINT LeftHandPinky2
										{
											OFFSET 4.52789 0.00000 0.00000
											CHANNELS 3 Zrotation Xrotation Yrotation
											JOINT LeftHandPinky3
											{
												OFFSET 2.46976 0.00000 0.00000
												CHANNELS 3 Zrotation Xrotation Yrotation
												End site
												{
													OFFSET 0.00000 0.00000 0.00000
												}
											}
										}
									}
								}
							}
						}
					}
					JOINT pCube4
					{
						OFFSET 0.00000 10.91090 1.10792
						CHANNELS 3 Zrotation Xrotation Yrotation
						End site
						{
							OFFSET 0.00000 0.00000 0.00000
						}
					}
				}
			}
		}
	}
	JOINT RightUpLeg
	{
		OFFSET -9.98441 0.00000 0.00000
		CHANNELS 3 Zrotation Xrotation Yrotation
		JOINT RightLeg
		{
			OFFSET 0.00000 -42.11790 0.00000
			CHANNELS 3 Zrotation Xrotation Yrotation
			JOINT RightFoot
			{
				OFFSET 0.00000 -45.00020 -0.00001
				CHANNELS 3 Zrotation Xrotation Yrotation
				JOINT RightForeFoot
				{
					OFFSET 0.00000 -3.74820 0.00000
					CHANNELS 3 Zrotation Xrotation Yrotation
					JOINT RightToeBase
					{
						OFFSET 0.00000 0.06325 14.43120
						CHANNELS 3 Zrotation Xrotation Yrotation
						End site
						{
							OFFSET 0.00000 0.00000 0.00000
						}
					}
				}
			}
		}
	}
	JOINT LeftUpLeg
	{
		OFFSET 9.98441 0.00000 0.00000
		CHANNELS 3 Zrotation Xrotation Yrotation
		JOINT LeftLeg
		{
			OFFSET 0.00000 -42.11800 0.00000
			CHANNELS 3 Zrotation Xrotation Yrotation
			JOINT LeftFoot
			{
				OFFSET 0.00000 -45.00070 0.00000
				CHANNELS 3 Zrotation Xrotation Yrotation
				JOINT LeftForeFoot
				{
					OFFSET 0.00000 -3.74824 0.00000
					CHANNELS 3 Zrotation Xrotation Yrotation
					JOINT LeftToeBase
					{
						OFFSET 0.00000 0.06325 14.43110
						CHANNELS 3 Zrotation Xrotation Yrotation
						End site
						{
							OFFSET 0.00000 0.00000 0.00000
						}
					}
				}
			}
		}
	}
}
MOTION
Frames: 4
Frame Time: 0.050000
-0.028595270520934864 -0.00970528687983649 -0.03638750026859116 -0.04469172188832795 0.03231633206481292 0.009076212751690925 -4.036396278445192 0.7091931724259445 -0.7111971574859672 -1.1104652235616184 3.5594243107755426 0.38622670151755684 -1.2830114175201468 -2.396611468408487 -2.244157299332899 -1.5661889119837151 0.2397932198994566 -0.901690467780213 -1.3069282892433314 13.184770043890744 5.17130707606234 0.411798431841469 -0.21085401739855508 12.328900197778754 -1.005832591529413 -15.635532529552952 1.0004100921693513 -6.442208770740945 2.454097761789368 -15.429100519479002 68.25128179694771 13.891867890848697 -2.662424843505608 -11.450809036323431 -2.6157116497109305 90.49739490883483 25.865263197118292 -0.5899333407396814 -6.422787844375609 4.479952721528827 -0.10256868604583214 -1.6310985731679988 0.0477380893395415 -0.015098817321325607 -56.19915160541411 -0.044451295456221375 0.04874477069168794 -56.2221099560429 -38.791513366136726 -0.006918398183530665 -0.008023097314797943 -0.008855838096580996 0.044144183624320044 -0.041419782185950445 0.029486520050470796 0.00018790486454479512 -0.01733578087071071 -36.7134172201157 -0.02457780202215584 0.02981823122299718 0.03171150900699888 0.008369767666728594 -0.008449332211981327 0.04667520117873074 0.032072347143019556 -0.0008236902522980828 -19.762896871078098 0.023037096842796725 -0.014625356110215473 0.013511181889128122 -0.015161879010169667 0.011783812704592373 0.02151306008841834 0.04027961569652006 -0.022769361910856406 24.043347610136525 -0.03062076097113309 -0.001733181043573008 28.906449192244718 0.021318134491219887 0.028625836644186622 28.859047234888376 0.044482262667707176 0.016509189805068623 9.416446950820335 2.1080770564921942 12.933941550438583 -70.84427250877016 31.16765660782934 -9.446039594122986 -12.753336436400993 -9.634667770511602 -64.583080512175 -12.540746713756459 -2.878072517291592 3.772365889119496 -0.5158125721246057 0.06116342496573192 -8.083045627495862 0.03819216929473717 -0.033496649576833175 44.57333201179265 -0.011252414845967253 0.007343310175193071 44.60993953460962 12.472710408640653 -0.04297203187925694 -0.007758288353780079 0.021442871617182134 0.028457616870290303 -0.013701905094346468 -0.0010576016263007086 0.025077231555391353 0.03441976617010015 11.13443167330277 0.020029351854741525 -0.008866567576188065 0.022816968438041114 -0.029193000101481677 -0.027927632698515264 0.0068594131694608255 0.00849270700410143 -0.04661884668689084 4.771538026523249 0.024292214464615138 -0.020542890581364385 0.026693626757238402 0.007012245379140713 -0.029395292352733103 -0.0259295573817485 0.04745086357600585 0.02196856890182912 -5.6485120658052566 -0.003800949205417731 -0.014711073002194033 -6.730452665529521 -0.012312444474622184 -0.03243289061118539 -6.7507358322728805 0.002268070919820106 0.0032814077420828635 0.0007701108900047581 0.03515589150247329 -0.03956202036517354 8.00367622457592 3.4737991784359523 -19.249465959117135 -0.024710743214380868 10.43841079767257 0.05281523178710404 -5.6457991618429295 -15.701230386698455 3.163534525345424 0.048433335528859554 0.02930433963943308 -0.03635576614130864 -0.045264109765567766 4.715541995772854 -0.009574733297971724 12.461570653355091 -8.236299025378337 6.855194357389809 0.03440837288289818 46.35893454958941 -0.005916078076661554 -4.325928348188778 -14.775991018117917 -3.8799613782422555 0.026597233941144455 0.0008709739553168229 0.015473269880751497 -0.020294421060141545 -10.696851568560481 0.04439654821407541 
-0.01645781490039325 0.029406174464637305 -0.030707042010170604 -0.025047475009189465 -0.02843317902084574 -0.029320312026865913 -3.7292445691833445 0.6445443463039547 -0.7192408253390573 -1.0460184586035637 3.516672980533079 0.3301254782247667 -1.2470403694599812 -2.4168750852499943 -2.313208367598853 -1.501446663066951 0.18439267185489455 -0.8749595251466971 -1.3332749925309444 13.342023590666184 5.132755367358314 0.3693000698079775 -0.010988966682968698 12.379760603431496 -1.1273953320978563 -15.193151958042558 0.9516258707450524 -6.469726089515787 2.4663788767405337 -15.424134977407862 67.50756996610187 14.902546325826224 -2.232473593966726 -14.792389974895036 -2.9395613927071054 91.17123970960351 26.024073956127395 -0.6069489785887311 -6.818049419576129 4.570829797965172 -0.11912194372895644 -1.6074584105836145 0.03427978921445983 -0.048279150444166585 -56.240752473099334 0.030676376584194073 0.046895743991820234 -56.20730133040803 -38.73600743055404 -0.023832047947722108 0.04995120368746255 0.04824213356508366 -0.031051213051054592 -0.0015327662213463573 -0.03540084077350975 0.046917927134883 -0.011390933670688616 -36.68923018921965 -0.018408692981365687 0.03512995832944372 -0.026557289946517657 0.006279788279332347 -0.019566407081850975 0.003719892020784071 0.001623754489475278 0.014381879987301888 -19.761309423352355 -0.002668714801673244 -0.03320264950117071 -0.0010940671228389617 -0.003968316555119169 0.02915068068413697 -0.011701868563875973 -0.032945275356421104 -0.031708235124180854 24.062514507024844 -0.012802308103765031 -0.033101673962013106 28.83904480674576 0.03174636905214568 0.03551344672982379 28.868098880028267 -0.04955533091685878 -0.02989914460972859 9.60593363695313 2.1491784867450017 12.899519345761469 -70.63150877659331 30.594441870752807 -10.915271246233088 -12.268123922322873 -10.8853664231363 -65.33887779075994 -12.512039523298327 -3.556411641239432 4.240200468544154 -0.5081856057435388 0.04746022617116834 -8.127791839459062 0.01324845842766109 0.039925339927335705 44.61517372552694 0.025168812142933712 -0.027343226753878673 44.58724008510019 12.444480758050586 0.033656773159961025 0.0012266651036669874 0.026295021321339734 0.024866257943097964 0.023036301836345096 -0.035412362057158774 0.04611170269723288 0.024400739881392023 11.097552471362476 -0.03036967714072339 0.0363899685777285 0.00877562324522334 0.009760192176832203 0.01579933791799849 0.005636642754019712 -0.04560662953070029 0.026850651884488853 4.772017415618934 -1.8777224958683273e-05 -0.006033080034675712 0.00952498058865275 -0.00782360604177113 0.032471409745581936 -0.02823979863757413 -0.015185142679045329 0.003834054038986461 -5.578809907530013 0.03089551293108085 -0.03177593188768198 -6.706522825487117 0.003040377013997046 0.031138666594804822 -6.681944727507275 -0.02043716705444148 -0.03210937646710064 -0.008878976445439878 0.0224395138189005 -0.019241569394492723 8.040697761439716 3.4884324966302924 -19.23285201579851 -0.006480530748302639 10.366266959661663 0.030497714665913504 -5.665887490188037 -15.686805274035617 3.1549190515381014 0.003905142139864084 0.012761720072915796 -0.019753695401321776 0.015691320419267733 4.696182149708194 0.007734485635714476 12.450375472040866 -8.21741634379776 6.924127774220791 0.012244733043216601 46.38106045568799 0.014034119674748942 -4.358088640837843 -14.748509859812875 -3.8514051518926187 -0.03358861205733394 0.016682933426665637 -0.04903271396270456 -0.018580264437064488 -10.721721057060169 0.0010573334659640236 
0.0225484023979806 0.027480656589491288 0.00427382284925886 -0.04917596679757913 0.042532495010830715 0.0009144931291064252 -3.3530345806601236 0.5674874379005888 -0.7845589278560485 -1.087584827401258 3.5218493486637428 0.35181188847429457 -1.229540084457074 -2.3701341884800815 -2.2614824077241473 -1.4377106633495844 0.18057581796348926 -0.9018500296284843 -1.2687997858015312 13.298971923386382 4.839632060322374 0.3679502897471954 0.2666244147174948 11.637187460682842 -1.040227690259717 -14.832405010905925 0.9184505317708068 -6.44013686071735 2.4510764687928925 -15.346592603781847 66.95585483291516 16.311884778866247 -1.5562496277861138 -17.50452777556432 -2.9490109979167696 91.85156957123787 26.141844451307183 -0.5467163973807863 -7.191423490260177 4.51885508681142 -0.09703757252534718 -1.6191610432037098 0.01351546941832666 0.022151878551211444 -56.23224770953211 -0.00854616121284551 0.006823762652091924 -56.229321513275856 -38.76766312843591 0.026874236062229113 0.012417842903058245 -0.048848887537156785 -0.02672998233330341 0.005704487962542238 -0.0005980831629587982 -0.03206039158939485 -0.04158047505387842 -36.71554312402038 -0.0026005116977444627 -0.0002493648626244627 -0.004174668000965084 0.022260076987994967 -0.004201582993459872 0.0090462122059298 0.027272256445545186 -0.041770399215442525 -19.782387826168545 0.028096112987941825 0.015617102972437154 -0.04010549929004361 0.04529999843388915 -0.02086511743649824 0.020528828984247568 0.021655290612780372 -0.0003448265280114898 24.082641900877736 -0.04751355546436274 0.016297431275812468 28.877809996929738 -0.014274635309221382 0.0301049771903126 28.859957595637518 -0.03256932740554712 -0.008623656369570654 9.568597844713068 2.16557000994082 12.856563049914552 -70.3639679786161 30.30538452925606 -11.500194173981802 -12.427483887039573 -11.171570695148295 -66.35653171579546 -13.093855609246912 -4.359392487261317 4.7156246789641 -0.4438068379624839 0.0613639460069342 -8.115992068520654 0.005949056314582876 -0.03438606573810954 44.54696084750516 -0.009879427473521048 0.02540177912402845 44.543690795391726 12.461597168923559 0.0392227781526535 0.003961686931782409 -0.0033249491525627933 0.045699371242600505 0.020947025801952426 -0.031953179763222796 -0.04723243631222962 -0.028619214799350444 11.066912941887242 -0.03872558446135149 -0.01767585065205492 -0.03314266723600424 -0.0055610212627412794 0.030634457722626168 -0.024981622170342842 -0.03295311288157517 -0.004924469187357393 4.768714538316592 -0.018912738382008028 0.043312829979628605 -0.0029713827565912092 -0.01195229391796327 0.04797459024890384 0.028437744768268765 -0.003525741621526042 0.0021187248696700944 -5.563753907356333 0.02792017050798659 0.02158903985502611 -6.675433111570117 0.036743809018353245 -0.02827122201874727 -6.739540146480856 -0.025335533749647456 -0.04357901410063939 0.01571508522643854 -0.010616629667764891 -0.0009314569150676804 8.090127396176365 3.4930727871260645 -19.246181601083695 0.022983213226980805 10.411864591067454 0.05352028703333889 -5.627029511173253 -15.666499274305892 3.1787445774337026 0.027062738659099608 -0.04602252300690314 0.0216815034997817 -0.008830484246919372 4.679399490421289 -0.03294130397520949 12.439052916694564 -8.22679131907461 6.880513708421914 0.04710688696465729 46.334775323983656 0.030264630228829668 -4.371298588393986 -14.730330330698942 -3.8347332848767164 0.01377292453911746 0.015621919703040504 0.0385775307311299 -0.04590707771340734 -10.741366675718876 0.010586664779902784 
-0.030140981016437748 0.0312961670398655 -0.003025035471329742 -0.02878009407346401 -0.04115315346641179 -0.020978952190424335 -3.047716555527223 0.45024841791085346 -0.8411979244410177 -1.072555809320947 3.4778571355638808 0.4031785166010995 -1.145886831628238 -2.3111948382913856 -2.2216938602700917 -1.278476688377623 0.19819282717684664 -0.9368329661945372 -1.1491614770677885 13.317497079506193 4.364188608081212 0.35427805051807804 0.49646544367978984 10.54791651704435 -0.9975327909172662 -14.440512865941708 0.8481367660833512 -6.369224696781478 2.4074508755975956 -15.326759892139206 66.73138570419782 18.37901677548469 -0.8599577826087108 -19.151244497113915 -2.7139978559765128 92.6387648499253 26.300461247417495 -0.5197007468709012 -7.5309096646763845 4.558366530038787 -0.09699413680594376 -1.6148116732379807 0.01884324450327533 -0.016108427826736327 -56.23377422873527 -0.0081772019058668 -0.03145349868458853 -56.27472006368367 -38.756098398315416 0.021298171174836015 -0.014205393359798795 -0.004920021358312046 0.018157812595927376 0.0012123690813299344 -0.020100867454238044 0.036978476886968766 0.039562486735508315 -36.69012723713398 0.037465126812255944 -0.03338787151039787 -0.013555244839264402 -0.012451778361207071 0.021104115933148742 0.00735110049174765 0.04055082731528837 0.042922528153720885 -19.743215410660667 0.02160940033157992 0.017105907678921804 -0.023012473593198305 0.026561912626661965 0.028669550306258337 0.00011411293399562555 -0.004769118951168073 0.014444934998092537 24.04282535172634 0.015541908526566693 -0.01975973982094324 28.846452958084257 0.0038467242569752863 -0.04409059995089325 28.84660330123805 -0.03916139697709309 0.0007107522968187892 9.378937868148983 2.106874788495905 12.875260799135694 -70.14191146375569 30.417924415071447 -11.66923468969561 -12.872148862117486 -10.916871632862781 -66.74860154762511 -13.590883007878208 -4.832842368897256 5.022681911850675 -0.450390782850177 0.026762173650780555 -8.149511015162737 -0.040140384751540685 0.0016117603943509315 44.59496717908309 0.03754736829965866 0.015079459475026384 44.568790936354155 12.44251894663073 0.030413455473751964 -0.03436093448633013 -0.029800666249489908 -0.01413964941432052 0.04585684892575539 0.006727278045291083 -0.03605130630299562 0.004111606748313734 11.131229852727806 -0.01043093769665014 -0.013510229702966331 0.014891208419154797 0.020450499301723667 -0.0005275373392120213 -0.01660550563290355 -0.00048190523573571836 0.038281126558373735 4.7476047180691765 -0.027164388596874516 0.04669273155676267 -0.02011442407127226 -0.011790009225076751 -0.026410851054779798 -0.017303803234253297 0.004323700740002131 0.00783952334590403 -5.599588347370378 0.020306543513663566 0.046735091419833105 -6.75732538388135 0.013183359111935428 0.03234215576083993 -6.763551615881446 -0.025269444082673703 -0.013589395108976018 0.008498711976454049 -0.03107090262925673 0.010088303011883423 8.066080255203001 3.5174578664124843 -19.249485988418282 0.00990289598850554 10.373300270781296 -0.008727255749777924 -5.610117306526442 -15.619682304602874 3.2243314767036524 0.009245121330084202 0.03547652886567772 -0.020166224684128403 -0.006079325844535059 4.687948937329894 -0.007587890777322058 12.460132504684568 -8.223360158169466 6.863791877831017 -0.0032094727543295785 46.36001693212617 0.014518289558867473 -4.281186508961359 -14.727458102630292 -3.8832954741296457 0.04774237285712206 0.011054465166371704 -0.006605206683320702 0.0010743555025261482 -10.783661701305524 0.023955206442106664 
